{
	"asset":{
		"generator":"Khronos glTF Blender I/O v3.5.30",
		"version":"2.0"
	},
	"scene":0,
	"scenes":[
		{
			"name":"Scene",
			"nodes":[
				0
			]
		}
	],
	"nodes":[
		{
			"mesh":0,
			"name":"stage_base",
			"translation":[
				-1.0694911479949951,
				0,
				1.2362345457077026
			]
		}
	],
	"meshes":[
		{
			"name":"Cube.001 -col",
			"primitives":[
				{
					"attributes":{
						"POSITION":0,
						"TEXCOORD_0":1,
						"NORMAL":2
					},
					"indices":3
				}
			]
		}
	],
	"accessors":[
		{
			"bufferView":0,
			"componentType":5126,
			"count":437,
			"max":[
				12.210158348083496,
				9.219989776611328,
				7.080227851867676
			],
			"min":[
				-10.571175575256348,
				-0.5,
				-9.44725227355957
			],
			"type":"VEC3"
		},
		{
			"bufferView":1,
			"componentType":5126,
			"count":437,
			"type":"VEC2"
		},
		{
			"bufferView":2,
			"componentType":5126,
			"count":437,
			"type":"VEC3"
		},
		{
			"bufferView":3,
			"componentType":5123,
			"count":1239,
			"type":"SCALAR"
		}
	],
	"bufferViews":[
		{
			"buffer":0,
			"byteLength":5244,
			"byteOffset":0,
			"target":34962
		},
		{
			"buffer":0,
			"byteLength":3496,
			"byteOffset":5244,
			"target":34962
		},
		{
			"buffer":0,
			"byteLength":5244,
			"byteOffset":8740,
			"target":34962
		},
		{
			"buffer":0,
			"byteLength":2478,
			"byteOffset":13984,
			"target":34963
		}
	],
	"buffers":[
		{
			"byteLength":16464,
			"uri":"data:application/octet-stream;base64,"
		}
	]
}
