{
	"asset":{
		"generator":"Khronos glTF Blender I/O v3.5.30",
		"version":"2.0"
	},
	"scene":0,
	"scenes":[
		{
			"name":"Scene",
			"nodes":[
				0
			]
		}
	],
	"nodes":[
		{
			"mesh":0,
			"name":"stage_base"
		}
	],
	"materials":[
		{
			"doubleSided":true,
			"name":"uv check",
			"pbrMetallicRoughness":{
				"baseColorTexture":{
					"index":0
				},
				"metallicFactor":0,
				"roughnessFactor":0.5
			}
		}
	],
	"meshes":[
		{
			"name":"Cube.001 -col",
			"primitives":[
				{
					"attributes":{
						"COLOR_0":0,
						"POSITION":1,
						"TEXCOORD_0":2,
						"NORMAL":3
					},
					"indices":4,
					"material":0
				}
			]
		}
	],
	"textures":[
		{
			"sampler":0,
			"source":0
		}
	],
	"images":[
		{
			"bufferView":5,
			"mimeType":"image/png",
			"name":"Untitled"
		}
	],
	"accessors":[
		{
			"bufferView":0,
			"componentType":5123,
			"count":5841,
			"normalized":true,
			"type":"VEC4"
		},
		{
			"bufferView":1,
			"componentType":5126,
			"count":5841,
			"max":[
				12.210158348083496,
				9.219989776611328,
				7.089336395263672
			],
			"min":[
				-10.571175575256348,
				-0.5,
				-9.69067096710205
			],
			"type":"VEC3"
		},
		{
			"bufferView":2,
			"componentType":5126,
			"count":5841,
			"type":"VEC2"
		},
		{
			"bufferView":3,
			"componentType":5126,
			"count":5841,
			"type":"VEC3"
		},
		{
			"bufferView":4,
			"componentType":5123,
			"count":11274,
			"type":"SCALAR"
		}
	],
	"bufferViews":[
		{
			"buffer":0,
			"byteLength":46728,
			"byteOffset":0,
			"target":34962
		},
		{
			"buffer":0,
			"byteLength":70092,
			"byteOffset":46728,
			"target":34962
		},
		{
			"buffer":0,
			"byteLength":46728,
			"byteOffset":116820,
			"target":34962
		},
		{
			"buffer":0,
			"byteLength":70092,
			"byteOffset":163548,
			"target":34962
		},
		{
			"buffer":0,
			"byteLength":22548,
			"byteOffset":233640,
			"target":34963
		},
		{
			"buffer":0,
			"byteLength":40135,
			"byteOffset":256188
		}
	],
	"samplers":[
		{
			"magFilter":9729,
			"minFilter":9987
		}
	],
	"buffers":[
		{
			"byteLength":296324,
			"uri":"data:application/octet-stream;base64,"
		}
	]
}
